<svg xmlns="http://www.w3.org/2000/svg" xmlns:xlink="http://www.w3.org/1999/xlink" width="99" height="29" viewBox="0 0 99 29"><defs><path id="a" d="M0 29h98.07V.291H0z"/></defs><g fill="none" fill-rule="evenodd"><path fill="#23B175" d="M15.8 15.496c-.481-2.343-2.221-4.653-3.414-4.792-1.47.474-2.16 1.24-3.84 2.48-1.108.816-2 1.162-2 1.162s2.13 3.977 4.867 3.017c1.198-.419 2.178-2.763 4.387-1.867"/><path fill="#EC5956" d="M19.041 18.482c2.035-3.94 5.45-5.922 5.45-5.922s-1.752-1.65-4.77-2.467c-3.628-.979-6.092.01-6.092.01s2.604 1.326 3.39 5.66c.46 2.54 1.9 2.72 2.023 2.72"/><path fill="#27A8E0" d="M14.267.169c-1.63-.091-3.403.06-5.327.54C3.403 2.095-2.1 7.985 1.2 12.561c3.003 3.942 7.578-1.401 10.724-3.002-1.225-3.147-.053-6.537 2.343-9.39"/><path fill="#FAAD40" d="M15.596.301c-2.366 2.626-3.604 5.77-2.639 8.813 6.775-2.531 12.354 2.579 12.354 2.579s1.353-3.505-1.323-6.848c-1.607-2.01-4.49-3.984-8.392-4.544"/><g transform="translate(0 -.291)"><path fill="#FFF" d="M34.76 9.405v3.85c.353.042.954.103 1.684.103 1.727 0 2.666-.726 2.666-2.1 0-1.229-.939-1.853-2.54-1.853h-1.81zm0-5.909v3.682h1.724c1.187 0 2.166-.6 2.166-1.933 0-1.187-.915-1.81-2.29-1.81-.582 0-1.143.021-1.6.061zm-2.562-2.352c.814-.04 2.748-.103 4.203-.103 3.476 0 4.79 1.582 4.79 3.6 0 1.663-.836 2.726-2.08 3.308v.041c1.432.355 2.556 1.456 2.556 3.391 0 2.997-2.329 4.372-5.41 4.372-1.333 0-3.203-.043-4.059-.105V1.144zM43.494 15.668V6.305h2.39v5.93l4.37-5.93h2.395v9.363h-2.394V9.74l-4.37 5.928zM60.29 10.757l4.036 4.91h-3.118L57.5 10.946l3.373-4.64h3.018l-3.6 4.452zm-5.263 4.91h2.39V6.306h-2.39v9.363zM65.456 15.668V6.305h2.39v5.93l4.374-5.93h2.39v9.363h-2.39V9.74l-4.374 5.928zM82.337 15.668c-1.373 3.352-2.249 4.162-3.62 4.162-.854 0-1.478-.334-2.02-.726l.77-1.813c.25.146.604.334.977.334.603 0 1.04-.478 1.436-1.456l.208-.501-4.329-9.363h2.872l2.186 5.119c.19.458.314.895.457 1.354.083-.437.167-.896.333-1.375l1.687-5.098h2.726l-3.683 9.363zM87.17 6.305h2.163l3.183 3.913 3.018-3.913h2.103v9.363h-2.396v-5.72l-2.764 3.495h-.064l-2.851-3.495v5.72H87.17zM.47 22.765h4.32v.601H2.95v4.659h-.64v-4.659H.47zM6.666 23.366v2.027c.255.024.503.04.767.04.773 0 1.239-.399 1.239-1.06 0-.624-.376-1.022-1.21-1.022-.21 0-.548.007-.796.015zm-.638 4.658v-5.259c.292 0 1.044-.015 1.374-.015 1.502 0 1.946.811 1.946 1.63 0 .856-.61 1.653-1.893 1.653-.211 0-.526-.008-.79-.03v2.021h-.637zM10.885 22.765h2.967v.601h-2.328v1.698h2.103v.6h-2.103v1.758h2.403v.602h-3.042zM19.109 25.642h-2.892v2.383h-.638v-5.26h.638v2.276h2.892v-2.276h.639v5.26h-.64zM22.593 25.83h1.893l-.946-2.246-.947 2.247zm.69-3.095h.549l2.26 5.289h-.682l-.676-1.593h-2.396l-.67 1.593h-.645l2.26-5.29zM31.146 25.274l2.209 2.75h-.743l-2.164-2.743 2.081-2.516h.743l-2.125 2.51zm-1.472 2.75h.64v-5.259h-.64v5.26zm-2.951-5.259h.744l2.08 2.516-2.163 2.743h-.744l2.209-2.743-2.127-2.516zM34.667 22.765h2.968v.601h-2.328v1.698h2.102v.6h-2.102v1.758h2.402v.602h-3.042zM40 23.366v2.027c.255.024.503.04.766.04.774 0 1.239-.399 1.239-1.06 0-.624-.376-1.022-1.21-1.022-.21 0-.547.007-.795.015zm-.639 4.658v-5.259c.293 0 1.044-.015 1.374-.015 1.503 0 1.946.811 1.946 1.63 0 .856-.609 1.653-1.892 1.653-.211 0-.526-.008-.789-.03v2.021h-.639z"/><mask id="b" fill="#fff"><use xlink:href="#a"/></mask><path fill="#FFF" d="M48.351 28.025h.639v-5.259h-.639v5.259zm-3.493-2.699v2.089c.203.008.391.022.631.022.864 0 1.337-.376 1.337-1.119 0-.669-.466-1.037-1.314-1.037a6.23 6.23 0 0 0-.654.045zm0-.608c.286-.022.526-.037.699-.037 1.321 0 1.945.63 1.945 1.623 0 1.104-.781 1.735-2.087 1.735-.452 0-.888-.015-1.195-.015v-5.258h.638v1.952zM53.6 27.423h2.665v-4.057h-1.84l-.067.94c-.128 1.809-.564 2.877-.759 3.117zm-1.27 0h.563c.217-.271.751-1.404.863-3.605l.053-1.052h3.095v4.657h.714V29h-.602v-.975h-4.085V29h-.602v-1.577zM62.198 23.366H60.29l-.09.992c-.308 3.343-1.014 3.772-1.84 3.666l.007-.639c.376.038 1.007-.15 1.247-3.568l.075-1.052h3.148v5.26h-.64v-4.659zM67.251 25.469v-2.103c-.172-.007-.487-.022-.713-.022-.819 0-1.254.48-1.254 1.104 0 .556.45.946.908 1.02h1.059zm0 .603h-.983l-1.36 1.953h-.721l1.457-2.067c-.541-.218-1.037-.721-1.037-1.472 0-.947.631-1.743 2.051-1.743.353 0 .925.023 1.232.023v5.259h-.639v-1.953zM71.907 22.765h.646l1.975 2.697 1.893-2.697h.608v5.26h-.64v-4.252l-1.861 2.613h-.098l-1.885-2.592v4.23h-.638zM81.25 27.498c1.201 0 2.004-.916 2.004-2.104 0-1.224-.879-2.103-2.005-2.103-1.142 0-2.005.879-2.005 2.103 0 1.194.88 2.104 2.005 2.104m0-4.808c1.524 0 2.682 1.104 2.682 2.704 0 1.562-1.158 2.705-2.682 2.705-1.525 0-2.682-1.105-2.682-2.705 0-1.525 1.12-2.704 2.682-2.704M84.981 27.272l.353-.428c.337.4.9.654 1.329.654.683 0 1.194-.354 1.194-1.007 0-.519-.375-.858-1.028-.858h-.609v-.599h.563a.88.88 0 0 0 .871-.888c0-.569-.413-.855-.953-.855-.518 0-.88.21-1.195.585l-.375-.42c.352-.458.954-.766 1.638-.766.908 0 1.524.503 1.524 1.397 0 .443-.248.94-.758 1.202v.022c.638.121.961.64.961 1.24 0 .97-.833 1.547-1.795 1.547-.804 0-1.442-.405-1.72-.826M90.185 22.765h2.93v.601h-2.292v4.659h-.638zM94.57 25.83h1.894l-.947-2.246-.947 2.247zm.69-3.095h.549l2.26 5.289h-.682l-.676-1.593h-2.396l-.67 1.593H93l2.26-5.29z" mask="url(#b)"/></g></g></svg>