<svg xmlns="http://www.w3.org/2000/svg" width="113" height="22" viewBox="0 0 113 22"><style>.st0{fill:#23b175}.st1{fill:#ec5956}.st2{fill:#27a8e0}.st3{fill:#faad40}.st4{fill:#fff}</style><g id="XMLID_13_"><path id="XMLID_17_" d="M18.6 18.7c-.6-2.7-2.6-5.3-3.9-5.5-1.7.5-2.5 1.4-4.4 2.8C9 17 8 17.4 8 17.4s2.4 4.6 5.6 3.5c1.3-.5 2.4-3.2 5-2.2" class="st0"/><path id="XMLID_16_" d="M22.3 22.2c2.3-4.5 6.3-6.8 6.3-6.8s-2-1.9-5.5-2.8c-4.2-1.1-7 0-7 0s3 1.5 3.9 6.5c.5 2.9 2.2 3.1 2.3 3.1" class="st1"/><path id="XMLID_15_" d="M16.8 1.1c-1.9-.1-3.9.1-6.1.6C4.3 3.4-2 10.1 1.8 15.4c3.4 4.5 8.7-1.6 12.3-3.4-1.4-3.7 0-7.6 2.7-10.9" class="st2"/><path id="XMLID_14_" d="M18.3 1.3c-2.7 3-4.1 6.6-3 10.1 7.8-2.9 14.2 3 14.2 3s1.6-4-1.5-7.9c-1.9-2.3-5.2-4.6-9.7-5.2" class="st3"/></g><path d="M54.5 19h-2.7l-4-12-4 12.1H41L36 2.4h3.3l3.4 11.9 3.7-11.9h2.9l3.8 11.9 3.3-11.9h2.8L54.5 19zM62.1 2.3c.8 0 1.6.6 1.6 1.6 0 1.1-.8 1.7-1.6 1.7-.9 0-1.7-.6-1.7-1.7 0-1 .8-1.6 1.7-1.6zm-1.4 6h2.7V19h-2.7V8.3zM66.1 2.3h2.7V19h-2.7V2.3zm6.1 10.9l4.5 5.8h-3.5L69 13.4l3.8-5.1h3.5l-4.1 4.9zM79.4 2.3c.8 0 1.6.6 1.6 1.6 0 1.1-.8 1.7-1.6 1.7-.9 0-1.7-.6-1.7-1.7 0-1 .8-1.6 1.7-1.6zm-1.4 6h2.7V19H78V8.3zM93.3 19h-2.7v-1.3c-.6.8-1.8 1.6-3.4 1.6-2.1 0-3.8-1.4-3.8-4.4V8.3h2.7v6c0 1.4.5 2.5 2 2.5.9 0 1.8-.5 2.4-1.3V8.3h2.7V19zM112.3 19h-2.7v-6.3c0-1.3-.5-2-1.8-2-1 0-1.8.5-2.2 1.2V19h-2.7v-6.5c0-1.1-.6-1.9-1.8-1.9-1 0-1.8.4-2.2 1.1V19H96V8.3h2.7v1.2c.8-.9 2-1.4 3.4-1.4 1.6 0 2.7.7 3.1 1.7.8-1 2-1.7 3.6-1.7 2 0 3.4 1 3.4 3.9v7z" class="st4"/></svg>